<?xml version="1.0" encoding="UTF-8"?>
<svg id="Layer_1" xmlns="http://www.w3.org/2000/svg" version="1.1" viewBox="0 0 121 34">
  <!-- Generator: Adobe Illustrator 29.3.1, SVG Export Plug-In . SVG Version: 2.1.0 Build 151)  -->
  <defs>
    <style>
      .st0 {
        fill: #4eb96f;
      }

      .st0, .st1, .st2 {
        fill-rule: evenodd;
      }

      .st1 {
        fill: #ea385e;
      }

      .st3 {
        fill: #fff;
      }

      .st2 {
        fill: #2ab6fb;
      }
    </style>
  </defs>
  <path class="st3" d="M6.2,32.4c-1.9-1-3.5-2.6-4.6-4.5-1.1-1.9-1.6-4.1-1.6-6.5s.5-4.6,1.6-6.6c1.1-1.9,2.6-3.4,4.6-4.5,1.9-1.1,4.2-1.6,6.7-1.6s4.8.5,6.7,1.6c1.9,1,3.5,2.6,4.6,4.4,1.1,1.9,1.6,4.1,1.6,6.6s-.5,4.6-1.6,6.5c-1.1,1.9-2.7,3.4-4.6,4.5-2,1.1-4.2,1.6-6.7,1.6-2.5,0-4.8-.5-6.7-1.6ZM16.5,25.9c.9-1.1,1.4-2.6,1.4-4.5,0-1.1-.2-2.3-.6-3.3-.4-.9-1-1.7-1.8-2.3-.8-.5-1.7-.8-2.6-.8-.9,0-1.8.3-2.6.8-.8.6-1.4,1.4-1.8,2.3-.4,1-.6,2.2-.6,3.3,0,1.9.5,3.4,1.4,4.5.4.5,1,1,1.6,1.3.6.3,1.3.5,2,.5s1.4-.2,2-.5c.6-.3,1.2-.7,1.6-1.3h0Z"/>
  <path class="st3" d="M29.1,32.6c-1.5-.7-2.7-1.8-3.6-3.2-.9-1.4-1.3-3-1.3-4.7,0-1.6.4-3.3,1.3-4.7s2.1-2.5,3.6-3.2c1.5-.7,3.3-1.1,5.2-1.1s3.7.4,5.3,1.1c1.5.7,2.7,1.8,3.6,3.2.8,1.4,1.3,2.9,1.3,4.7s-.4,3.4-1.3,4.7c-.9,1.4-2.1,2.5-3.6,3.2-1.5.8-3.3,1.1-5.3,1.1-2,0-3.7-.4-5.2-1.2ZM36.8,27.4c.6-.7.9-1.6.9-2.8s-.3-2-.9-2.8c-.3-.3-.7-.6-1.1-.8-.4-.2-.9-.3-1.3-.3s-.9,0-1.3.3c-.4.2-.8.5-1.1.8-.6.7-.9,1.6-.9,2.7s.3,2,.9,2.8c.3.3.7.6,1.1.8.4.2.9.3,1.3.3s.9,0,1.3-.3c.4-.2.8-.5,1.1-.8h0Z"/>
  <path class="st3" d="M47.6,32.5c-1.3-.8-2.3-2-3.1-3.3-.7-1.4-1.1-2.9-1.1-4.5,0-1.6.4-3.1,1.2-4.5.7-1.4,1.8-2.5,3.2-3.3,1.3-.8,2.7-1.2,4.2-1.2,1.4,0,2.5.3,3.5.8.9.6,1.7,1.5,2.3,2.7v-8.8l7.4-1.1v24.2h-7.4v-3.3c-1.1,2.4-3,3.5-5.8,3.5-1.5,0-3-.4-4.3-1.3ZM56.7,27.1c.3-.3.6-.7.7-1.1.2-.4.3-.9.3-1.3h0c0-.6,0-1-.3-1.4-.2-.4-.4-.8-.8-1.1-.3-.3-.7-.6-1.1-.7-.4-.2-.9-.3-1.3-.3-.5,0-.9,0-1.3.3s-.8.4-1.1.8c-.3.3-.6.7-.7,1.1-.2.4-.3.9-.2,1.3,0,.9.4,1.8,1,2.5.6.7,1.5,1,2.5,1,.5,0,.9,0,1.4-.3s.8-.5,1.1-.8Z"/>
  <path class="st3" d="M68.5,31.9c-1.1-1.2-1.6-3-1.6-5.1V8.8l7.4-1.1v18.5c0,.7.2,1.1.5,1.4.3.3.9.4,1.7.4.6,0,1.2-.1,1.7-.4l.2,4.9c-1.6.8-3.4,1.2-5.3,1.2-2,0-3.5-.6-4.6-1.9Z"/>
  <path class="st3" d="M83.4,32.6c-1.4-.7-2.7-1.8-3.5-3.2-.6-1-1.1-2.2-1.2-3.4-.2-1.2,0-2.5.2-3.6.3-1.2.9-2.3,1.7-3.2.8-.9,1.7-1.7,2.8-2.3,1.5-.8,3.2-1.1,4.9-1.1,1.7,0,3.2.4,4.4,1.1,1.2.7,2.2,1.8,2.8,3.1.6,1.4.9,2.9.9,4.4,0,.3,0,.6,0,.9l-10.5,1.4c.3.8.7,1.4,1.4,1.8.6.4,1.5.5,2.5.5,1.6,0,3.3-.4,5.1-1.2l.9,4.7c-2.3,1-4.7,1.5-7.2,1.4-1.9,0-3.7-.4-5.2-1.2ZM91,22.1c-.4-1.5-1.3-2.2-2.7-2.2-.4,0-.8,0-1.1.2-.3.2-.7.4-.9.7-.5.6-.7,1.4-.8,2.5l5.4-1.2Z"/>
  <path class="st1" d="M110.1,7.2c0,1.4-.5,2.7-1.4,3.7-.8,1.1-1.9,1.9-3.2,2.4-1.3.4-2.7.5-4,.2-1.3-.3-2.5-1.1-3.4-2.1-.9-1-1.5-2.3-1.7-3.6-.2-1.3,0-2.7.6-3.9.6-1.2,1.5-2.2,2.7-2.9,1.2-.7,2.5-1,3.9-.9,1.8,0,3.5.9,4.7,2.3,1.2,1.4,1.8,3.1,1.7,5Z"/>
  <path class="st0" d="M120.2,14.9c0,1.1-.4,2.1-1.1,3-.7.9-1.5,1.5-2.6,1.9-1,.4-2.1.4-3.2.1-1.1-.3-2-.8-2.7-1.7-.7-.8-1.2-1.8-1.3-2.9-.2-1.1,0-2.2.5-3.1.5-1,1.2-1.8,2.1-2.4.9-.6,2-.8,3.1-.8.7,0,1.4.2,2.1.5.7.3,1.2.7,1.7,1.3.5.5.9,1.2,1.1,1.8.2.7.3,1.4.3,2.1Z"/>
  <path class="st2" d="M110.1,23.1c0,.9-.4,1.8-.9,2.5-.5.7-1.3,1.3-2.1,1.6-.9.3-1.8.3-2.7.1-.9-.2-1.7-.7-2.3-1.4-.6-.7-1-1.5-1.1-2.4-.1-.9,0-1.8.4-2.6.4-.8,1-1.5,1.8-2,.8-.5,1.7-.7,2.6-.6,1.2,0,2.3.6,3.2,1.5.8.9,1.2,2.1,1.2,3.3Z"/>
</svg>